<svg xmlns="http://www.w3.org/2000/svg" viewBox="0 0 1000 180" preserveAspectRatio="xMidYMid slice"><defs><linearGradient id="bg" x1="0" y1="0" x2="0" y2="1"><stop stop-color="#0a1b2d"/><stop offset="1" stop-color="#050c14"/></linearGradient><linearGradient id="m" x1="0" y1="0" x2="0" y2="1"><stop stop-color="#23588e"/><stop offset="1" stop-color="#0a2037"/></linearGradient><symbol id="p" viewBox="0 0 20 55"><path d="M10 0L2 17h5L1 29h6L0 44h8v11h4V44h8l-7-15h6l-6-12h5z" fill="#03101a"/></symbol></defs><rect width="1000" height="180" fill="url(#bg)"/><path d="M330 135L430 84l62 35 75-70 74 72 58-43 79 55 70-53 92 55 80-33v78H330z" fill="url(#m)" opacity=".9"/><path d="M492 119l75-70 74 72-35-24-22 10-22-31-30 25z" fill="#8db9e1" opacity=".42"/><g><use href="#p" x="315" y="105" width="35" height="96"/><use href="#p" x="356" y="118" width="28" height="77"/><use href="#p" x="390" y="103" width="37" height="101"/><use href="#p" x="445" y="119" width="28" height="77"/><use href="#p" x="514" y="112" width="32" height="88"/><use href="#p" x="558" y="105" width="37" height="101"/><use href="#p" x="622" y="116" width="29" height="80"/><use href="#p" x="686" y="107" width="35" height="96"/><use href="#p" x="743" y="119" width="28" height="77"/><use href="#p" x="809" y="108" width="34" height="93"/><use href="#p" x="866" y="114" width="30" height="82"/></g><path d="M0 154c170-15 308-7 455 4 164 12 329 4 545-10v32H0z" fill="#030a11" opacity=".95"/></svg>