<svg xmlns="http://www.w3.org/2000/svg" viewBox="0 0 400 220"><defs><linearGradient id="s" x1="0" y1="0" x2="1" y2="1"><stop stop-color="#55e5ff"/><stop offset=".32" stop-color="#17aeea"/><stop offset=".64" stop-color="#155f9e"/><stop offset="1" stop-color="#0a1828"/></linearGradient><linearGradient id="m" x1="0" y1="0" x2="0" y2="1"><stop stop-color="#bcefff"/><stop offset="1" stop-color="#2e76aa"/></linearGradient><linearGradient id="lake" x1="0" y1="0" x2="0" y2="1"><stop stop-color="#1774a6"/><stop offset="1" stop-color="#071929"/></linearGradient><symbol id="p" viewBox="0 0 20 55"><path d="M10 0L2 17h5L1 29h6L0 44h8v11h4V44h8l-7-15h6l-6-12h5z" fill="#061827"/></symbol></defs><rect width="400" height="220" fill="url(#s)"/><path d="M0 147L63 103l34 24 57-78 64 74 47-54 54 57 37-35 44 54v75H0z" fill="url(#m)"/><path d="M125 118l29-69 64 74-34-22-17 8-16-24zM254 108l11-39 54 57-30-18-12 6z" fill="#e6f8ff" opacity=".72"/><path d="M0 161L54 132l54 22 55-42 70 48 49-28 55 35 63-31v84H0z" fill="#0d3e61" opacity=".93"/><path d="M0 169c73-12 124-11 181 1 59 13 117 8 219-5v55H0z" fill="url(#lake)"/><g><use href="#p" x="17" y="118" width="29" height="80"/><use href="#p" x="48" y="106" width="36" height="98"/><use href="#p" x="98" y="128" width="27" height="73"/><use href="#p" x="305" y="106" width="36" height="98"/><use href="#p" x="350" y="120" width="29" height="80"/></g><path d="M0 181c110-6 159 10 225 0 72-10 112-9 175 1" fill="none" stroke="#55dbff" stroke-opacity=".32" stroke-width="2"/></svg>